# MagicaVoxel @ Ephtracy

# group
o 

# material
mtllib another_tree.mtl
usemtl palette

# normals
vn -1 0 0
vn 1 0 0
vn 0 0 1
vn 0 0 -1
vn 0 -1 0
vn 0 1 0

# texcoords
vt 0.865234 0.5
vt 0.880859 0.5
vt 0.884766 0.5
vt 0.888672 0.5
vt 0.896484 0.5
vt 0.900391 0.5

# verts
v -0.6 0.5 0.5
v -0.6 0.5 -0.3
v -0.6 0.7 0.3
v -0.6 0.7 -0.1
v -0.6 0.8 0.4
v -0.6 0.8 0.3
v -0.6 0.8 -0.1
v -0.6 0.8 -0.3
v -0.6 0.9 0.5
v -0.6 0.9 0.4
v -0.6 0.9 0.3
v -0.6 0.9 0
v -0.6 0.9 -0.3
v -0.6 1 0.3
v -0.6 1 0
v -0.6 1 -0.2
v -0.6 1 -0.3
v -0.6 1.1 0.3
v -0.6 1.1 0.2
v -0.6 1.2 0.4
v -0.6 1.2 0.3
v -0.6 1.2 0.2
v -0.6 1.2 0.1
v -0.6 1.3 -0.2
v -0.6 1.3 -0.3
v -0.6 1.5 -0.2
v -0.6 1.5 -0.3
v -0.6 1.9 0.1
v -0.6 1.9 0
v -0.6 1.9 -0.2
v -0.6 1.9 -0.3
v -0.6 2 0.4
v -0.6 2 0.3
v -0.6 2 0.1
v -0.6 2 0
v -0.6 2 -0.1
v -0.6 2.1 0.3
v -0.6 2.1 0.1
v -0.6 2.1 -0.1
v -0.6 2.1 -0.2
v -0.6 2.2 0.3
v -0.6 2.2 0.2
v -0.6 2.2 0
v -0.6 2.2 -0.1
v -0.6 2.3 0.1
v -0.6 2.3 0
v -0.6 2.3 -0.1
v -0.6 2.3 -0.2
v -0.6 2.3 -0.3
v -0.6 2.4 0.5
v -0.6 2.4 0.3
v -0.6 2.4 0.2
v -0.6 2.4 0.1
v -0.6 2.4 0
v -0.6 2.4 -0.2
v -0.6 2.6 0.5
v -0.6 2.6 -0.3
v -0.3 0 0.2
v -0.3 0 0
v -0.3 0.5 0.2
v -0.3 0.5 0
v -0.0999999 0 0.2
v -0.0999999 0 0
v -0.0999999 0.5 0.2
v -0.0999999 0.5 0
v 0.2 0.5 0.5
v 0.2 0.5 -0.3
v 0.2 0.7 0.5
v 0.2 0.7 -0.1
v 0.2 0.8 -0.1
v 0.2 0.8 -0.3
v 0.2 0.9 0.4
v 0.2 0.9 0.2
v 0.2 1 0.5
v 0.2 1 0.4
v 0.2 1 0.1
v 0.2 1 0
v 0.2 1 -0.1
v 0.2 1 -0.2
v 0.2 1 -0.3
v 0.2 1.1 0.2
v 0.2 1.1 0.1
v 0.2 1.1 0
v 0.2 1.1 -0.1
v 0.2 1.1 -0.2
v 0.2 1.2 0.2
v 0.2 1.2 0.1
v 0.2 1.2 -0.2
v 0.2 1.2 -0.3
v 0.2 1.3 0.1
v 0.2 1.3 -0.1
v 0.2 1.4 0.2
v 0.2 1.4 0.1
v 0.2 1.4 -0.1
v 0.2 1.4 -0.2
v 0.2 1.4 -0.3
v 0.2 1.6 0.2
v 0.2 1.6 0
v 0.2 1.6 -0.1
v 0.2 1.6 -0.2
v 0.2 1.7 0
v 0.2 1.7 -0.1
v 0.2 1.8 0.4
v 0.2 1.8 0.1
v 0.2 2 -0.2
v 0.2 2 -0.3
v 0.2 2.1 0.4
v 0.2 2.1 0.2
v 0.2 2.1 -0.2
v 0.2 2.1 -0.3
v 0.2 2.2 0.2
v 0.2 2.2 0.1
v 0.2 2.2 0
v 0.2 2.3 0.3
v 0.2 2.3 0.1
v 0.2 2.3 0
v 0.2 2.3 -0.1
v 0.2 2.4 0.5
v 0.2 2.4 0.3
v 0.2 2.4 -0.1
v 0.2 2.4 -0.3
v 0.2 2.6 0.5
v 0.2 2.6 -0.3
v -0.6 0.5 0.5
v -0.6 0.9 0.5
v -0.6 2.4 0.5
v -0.6 2.6 0.5
v -0.5 0.8 0.5
v -0.5 0.9 0.5
v -0.5 1 0.5
v -0.5 1.1 0.5
v -0.5 1.5 0.5
v -0.5 2.1 0.5
v -0.5 2.2 0.5
v -0.5 2.3 0.5
v -0.5 2.4 0.5
v -0.4 1.8 0.5
v -0.4 2.1 0.5
v -0.3 0.9 0.5
v -0.3 1 0.5
v -0.3 1.4 0.5
v -0.3 1.5 0.5
v -0.3 1.7 0.5
v -0.3 1.8 0.5
v -0.3 2.3 0.5
v -0.3 2.4 0.5
v -0.2 0.7 0.5
v -0.2 0.8 0.5
v -0.2 0.9 0.5
v -0.2 1.1 0.5
v -0.2 1.2 0.5
v -0.2 1.4 0.5
v -0.2 1.5 0.5
v -0.2 1.7 0.5
v -0.0999999 1.4 0.5
v -0.0999999 1.5 0.5
v -0.0999999 1.7 0.5
v -0.0999999 1.8 0.5
v -0.0999999 2.1 0.5
v -0.0999999 2.2 0.5
v 5.96046e-08 0.6 0.5
v 5.96046e-08 0.7 0.5
v 5.96046e-08 1 0.5
v 5.96046e-08 1.1 0.5
v 5.96046e-08 1.8 0.5
v 5.96046e-08 2.1 0.5
v 5.96046e-08 2.2 0.5
v 5.96046e-08 2.4 0.5
v 0.1 0.6 0.5
v 0.1 0.7 0.5
v 0.1 1.1 0.5
v 0.1 1.2 0.5
v 0.1 1.4 0.5
v 0.1 1.7 0.5
v 0.1 2.2 0.5
v 0.1 2.4 0.5
v 0.2 0.5 0.5
v 0.2 0.7 0.5
v 0.2 1 0.5
v 0.2 2.4 0.5
v 0.2 2.6 0.5
v -0.3 0 0.2
v -0.3 0.5 0.2
v -0.0999999 0 0.2
v -0.0999999 0.5 0.2
v -0.3 0 0
v -0.3 0.5 0
v -0.0999999 0 0
v -0.0999999 0.5 0
v -0.6 0.5 -0.3
v -0.6 0.8 -0.3
v -0.6 0.9 -0.3
v -0.6 1 -0.3
v -0.6 1.3 -0.3
v -0.6 1.5 -0.3
v -0.6 1.9 -0.3
v -0.6 2.3 -0.3
v -0.6 2.6 -0.3
v -0.5 0.7 -0.3
v -0.5 0.8 -0.3
v -0.5 0.9 -0.3
v -0.5 1 -0.3
v -0.5 1.5 -0.3
v -0.5 1.8 -0.3
v -0.4 0.7 -0.3
v -0.4 0.8 -0.3
v -0.4 1 -0.3
v -0.4 1.1 -0.3
v -0.4 1.9 -0.3
v -0.4 2 -0.3
v -0.4 2.2 -0.3
v -0.4 2.3 -0.3
v -0.3 0.8 -0.3
v -0.3 0.9 -0.3
v -0.3 1.1 -0.3
v -0.3 1.8 -0.3
v -0.3 1.9 -0.3
v -0.3 2 -0.3
v -0.3 2.2 -0.3
v -0.3 2.4 -0.3
v -0.2 1.9 -0.3
v -0.2 2.2 -0.3
v -0.2 2.4 -0.3
v -0.0999999 0.8 -0.3
v -0.0999999 0.9 -0.3
v -0.0999999 1.5 -0.3
v -0.0999999 1.7 -0.3
v -0.0999999 2.2 -0.3
v -0.0999999 2.3 -0.3
v 5.96046e-08 0.7 -0.3
v 5.96046e-08 0.8 -0.3
v 5.96046e-08 0.9 -0.3
v 5.96046e-08 1 -0.3
v 5.96046e-08 1.1 -0.3
v 5.96046e-08 1.3 -0.3
v 5.96046e-08 1.5 -0.3
v 5.96046e-08 1.7 -0.3
v 5.96046e-08 2 -0.3
v 5.96046e-08 2.2 -0.3
v 5.96046e-08 2.3 -0.3
v 5.96046e-08 2.4 -0.3
v 0.1 0.7 -0.3
v 0.1 0.8 -0.3
v 0.1 1.2 -0.3
v 0.1 1.3 -0.3
v 0.1 1.4 -0.3
v 0.1 1.5 -0.3
v 0.1 2.1 -0.3
v 0.1 2.3 -0.3
v 0.2 0.5 -0.3
v 0.2 0.8 -0.3
v 0.2 1 -0.3
v 0.2 1.2 -0.3
v 0.2 1.4 -0.3
v 0.2 2 -0.3
v 0.2 2.1 -0.3
v 0.2 2.4 -0.3
v 0.2 2.6 -0.3
v -0.3 0 0.2
v -0.0999999 0 0.2
v -0.3 0 0
v -0.0999999 0 0
v -0.6 0.5 0.5
v 0.2 0.5 0.5
v -0.5 0.5 0.4
v 0.1 0.5 0.4
v -0.3 0.5 0.2
v -0.0999999 0.5 0.2
v -0.3 0.5 0
v -0.0999999 0.5 0
v -0.5 0.5 -0.2
v 0.1 0.5 -0.2
v -0.6 0.5 -0.3
v 0.2 0.5 -0.3
v -0.6 2.6 0.5
v 0.2 2.6 0.5
v -0.6 2.6 -0.3
v 0.2 2.6 -0.3

# faces
f 3/6/1 2/6/1 1/6/1
f 4/6/1 2/6/1 3/6/1
f 5/6/1 3/6/1 1/6/1
f 6/5/1 4/5/1 3/5/1
f 6/6/1 3/6/1 5/6/1
f 7/6/1 2/6/1 4/6/1
f 7/5/1 4/5/1 6/5/1
f 8/6/1 2/6/1 7/6/1
f 9/6/1 5/6/1 1/6/1
f 10/5/1 6/5/1 5/5/1
f 10/6/1 5/6/1 9/6/1
f 10/5/1 7/5/1 6/5/1
f 10/5/1 8/5/1 7/5/1
f 11/5/1 8/5/1 10/5/1
f 12/5/1 8/5/1 11/5/1
f 13/5/1 8/5/1 12/5/1
f 14/3/1 10/3/1 9/3/1
f 14/3/1 11/3/1 10/3/1
f 14/5/1 12/5/1 11/5/1
f 15/3/1 13/3/1 12/3/1
f 15/5/1 12/5/1 14/5/1
f 16/3/1 13/3/1 15/3/1
f 17/3/1 13/3/1 16/3/1
f 18/3/1 14/3/1 9/3/1
f 18/3/1 15/3/1 14/3/1
f 18/3/1 16/3/1 15/3/1
f 19/3/1 16/3/1 18/3/1
f 20/3/1 18/3/1 9/3/1
f 21/4/1 19/4/1 18/4/1
f 21/3/1 18/3/1 20/3/1
f 22/3/1 16/3/1 19/3/1
f 22/4/1 19/4/1 21/4/1
f 23/3/1 16/3/1 22/3/1
f 24/4/1 17/4/1 16/4/1
f 24/3/1 16/3/1 23/3/1
f 25/4/1 17/4/1 24/4/1
f 26/3/1 24/3/1 23/3/1
f 26/3/1 25/3/1 24/3/1
f 27/3/1 25/3/1 26/3/1
f 28/4/1 23/4/1 22/4/1
f 28/4/1 21/4/1 20/4/1
f 28/4/1 22/4/1 21/4/1
f 28/3/1 26/3/1 23/3/1
f 29/3/1 26/3/1 28/3/1
f 30/4/1 27/4/1 26/4/1
f 30/3/1 26/3/1 29/3/1
f 31/4/1 27/4/1 30/4/1
f 32/4/1 29/4/1 28/4/1
f 32/3/1 20/3/1 9/3/1
f 32/4/1 28/4/1 20/4/1
f 33/4/1 29/4/1 32/4/1
f 34/4/1 29/4/1 33/4/1
f 35/3/1 31/3/1 30/3/1
f 35/4/1 29/4/1 34/4/1
f 35/3/1 30/3/1 29/3/1
f 36/3/1 31/3/1 35/3/1
f 37/4/1 34/4/1 33/4/1
f 37/3/1 33/3/1 32/3/1
f 38/3/1 35/3/1 34/3/1
f 38/4/1 34/4/1 37/4/1
f 39/3/1 31/3/1 36/3/1
f 39/4/1 36/4/1 35/4/1
f 40/3/1 31/3/1 39/3/1
f 41/3/1 38/3/1 37/3/1
f 41/3/1 37/3/1 32/3/1
f 42/3/1 38/3/1 41/3/1
f 43/3/1 35/3/1 38/3/1
f 43/3/1 38/3/1 42/3/1
f 43/4/1 40/4/1 39/4/1
f 43/4/1 39/4/1 35/4/1
f 44/4/1 40/4/1 43/4/1
f 45/3/1 43/3/1 42/3/1
f 45/3/1 44/3/1 43/3/1
f 46/3/1 44/3/1 45/3/1
f 47/4/1 40/4/1 44/4/1
f 47/3/1 44/3/1 46/3/1
f 48/3/1 31/3/1 40/3/1
f 48/4/1 40/4/1 47/4/1
f 49/3/1 31/3/1 48/3/1
f 50/3/1 32/3/1 9/3/1
f 50/3/1 41/3/1 32/3/1
f 51/2/1 42/2/1 41/2/1
f 51/3/1 41/3/1 50/3/1
f 52/3/1 45/3/1 42/3/1
f 52/2/1 42/2/1 51/2/1
f 53/2/1 46/2/1 45/2/1
f 53/3/1 45/3/1 52/3/1
f 54/3/1 47/3/1 46/3/1
f 54/2/1 46/2/1 53/2/1
f 54/3/1 48/3/1 47/3/1
f 55/2/1 49/2/1 48/2/1
f 55/3/1 48/3/1 54/3/1
f 56/2/1 53/2/1 52/2/1
f 56/2/1 54/2/1 53/2/1
f 56/2/1 55/2/1 54/2/1
f 56/2/1 51/2/1 50/2/1
f 56/2/1 52/2/1 51/2/1
f 57/2/1 49/2/1 55/2/1
f 57/2/1 55/2/1 56/2/1
f 60/1/1 59/1/1 58/1/1
f 61/1/1 59/1/1 60/1/1
f 62/1/2 63/1/2 64/1/2
f 64/1/2 63/1/2 65/1/2
f 66/6/2 67/6/2 68/6/2
f 68/6/2 67/6/2 69/6/2
f 68/5/2 69/5/2 70/5/2
f 69/6/2 67/6/2 70/6/2
f 70/6/2 67/6/2 71/6/2
f 68/5/2 70/5/2 72/5/2
f 70/5/2 71/5/2 72/5/2
f 72/5/2 71/5/2 73/5/2
f 68/5/2 72/5/2 74/5/2
f 72/3/2 73/3/2 75/3/2
f 74/5/2 72/5/2 75/5/2
f 73/5/2 71/5/2 76/5/2
f 76/5/2 71/5/2 77/5/2
f 77/5/2 71/5/2 78/5/2
f 78/5/2 71/5/2 79/5/2
f 79/5/2 71/5/2 80/5/2
f 75/3/2 73/3/2 81/3/2
f 74/3/2 75/3/2 81/3/2
f 73/5/2 76/5/2 81/5/2
f 76/4/2 77/4/2 82/4/2
f 81/5/2 76/5/2 82/5/2
f 77/5/2 78/5/2 83/5/2
f 82/4/2 77/4/2 83/4/2
f 78/4/2 79/4/2 84/4/2
f 83/5/2 78/5/2 84/5/2
f 79/3/2 80/3/2 85/3/2
f 84/4/2 79/4/2 85/4/2
f 74/3/2 81/3/2 86/3/2
f 81/4/2 82/4/2 86/4/2
f 83/3/2 84/3/2 87/3/2
f 86/4/2 82/4/2 87/4/2
f 82/3/2 83/3/2 87/3/2
f 84/3/2 85/3/2 87/3/2
f 85/3/2 80/3/2 88/3/2
f 87/3/2 85/3/2 88/3/2
f 88/3/2 80/3/2 89/3/2
f 86/3/2 87/3/2 90/3/2
f 87/3/2 88/3/2 90/3/2
f 90/3/2 88/3/2 91/3/2
f 74/3/2 86/3/2 92/3/2
f 86/3/2 90/3/2 92/3/2
f 90/4/2 91/4/2 93/4/2
f 92/3/2 90/3/2 93/3/2
f 91/3/2 88/3/2 94/3/2
f 93/4/2 91/4/2 94/4/2
f 88/4/2 89/4/2 95/4/2
f 94/3/2 88/3/2 95/3/2
f 95/4/2 89/4/2 96/4/2
f 92/4/2 93/4/2 97/4/2
f 93/4/2 94/4/2 97/4/2
f 74/3/2 92/3/2 97/3/2
f 94/4/2 95/4/2 97/4/2
f 97/4/2 95/4/2 98/4/2
f 98/4/2 95/4/2 99/4/2
f 95/3/2 96/3/2 100/3/2
f 99/4/2 95/4/2 100/4/2
f 98/4/2 99/4/2 101/4/2
f 97/3/2 98/3/2 101/3/2
f 99/3/2 100/3/2 102/3/2
f 101/4/2 99/4/2 102/4/2
f 74/3/2 97/3/2 103/3/2
f 97/3/2 101/3/2 103/3/2
f 101/3/2 102/3/2 103/3/2
f 103/3/2 102/3/2 104/3/2
f 100/3/2 96/3/2 105/3/2
f 104/3/2 102/3/2 105/3/2
f 102/3/2 100/3/2 105/3/2
f 105/3/2 96/3/2 106/3/2
f 103/4/2 104/4/2 107/4/2
f 74/3/2 103/3/2 107/3/2
f 107/4/2 104/4/2 108/4/2
f 105/4/2 106/4/2 109/4/2
f 104/3/2 105/3/2 109/3/2
f 109/4/2 106/4/2 110/4/2
f 108/4/2 104/4/2 111/4/2
f 107/3/2 108/3/2 111/3/2
f 109/3/2 110/3/2 112/3/2
f 111/4/2 104/4/2 112/4/2
f 104/3/2 109/3/2 112/3/2
f 112/3/2 110/3/2 113/3/2
f 107/3/2 111/3/2 114/3/2
f 111/3/2 112/3/2 114/3/2
f 112/2/2 113/2/2 115/2/2
f 114/3/2 112/3/2 115/3/2
f 113/3/2 110/3/2 116/3/2
f 115/2/2 113/2/2 116/2/2
f 116/3/2 110/3/2 117/3/2
f 74/3/2 107/3/2 118/3/2
f 107/3/2 114/3/2 118/3/2
f 114/2/2 115/2/2 119/2/2
f 118/3/2 114/3/2 119/3/2
f 116/2/2 117/2/2 119/2/2
f 115/2/2 116/2/2 119/2/2
f 117/3/2 110/3/2 120/3/2
f 119/2/2 117/2/2 120/2/2
f 120/3/2 110/3/2 121/3/2
f 118/2/2 119/2/2 122/2/2
f 119/2/2 120/2/2 122/2/2
f 120/2/2 121/2/2 122/2/2
f 122/2/2 121/2/2 123/2/2
f 128/6/3 125/6/3 124/6/3
f 129/3/3 126/3/3 125/3/3
f 129/6/3 125/6/3 128/6/3
f 130/3/3 126/3/3 129/3/3
f 131/3/3 126/3/3 130/3/3
f 132/3/3 126/3/3 131/3/3
f 133/3/3 126/3/3 132/3/3
f 134/3/3 126/3/3 133/3/3
f 135/3/3 126/3/3 134/3/3
f 136/2/3 127/2/3 126/2/3
f 136/3/3 126/3/3 135/3/3
f 137/3/3 133/3/3 132/3/3
f 138/4/3 134/4/3 133/4/3
f 138/3/3 133/3/3 137/3/3
f 139/5/3 129/5/3 128/5/3
f 139/5/3 130/5/3 129/5/3
f 140/3/3 131/3/3 130/3/3
f 140/5/3 130/5/3 139/5/3
f 141/4/3 132/4/3 131/4/3
f 142/3/3 137/3/3 132/3/3
f 142/4/3 132/4/3 141/4/3
f 143/3/3 137/3/3 142/3/3
f 144/4/3 138/4/3 137/4/3
f 144/3/3 137/3/3 143/3/3
f 145/3/3 135/3/3 134/3/3
f 145/2/3 136/2/3 135/2/3
f 146/2/3 127/2/3 136/2/3
f 146/2/3 136/2/3 145/2/3
f 147/6/3 128/6/3 124/6/3
f 148/5/3 139/5/3 128/5/3
f 148/6/3 128/6/3 147/6/3
f 149/3/3 140/3/3 139/3/3
f 149/5/3 139/5/3 148/5/3
f 150/3/3 131/3/3 140/3/3
f 150/3/3 140/3/3 149/3/3
f 150/4/3 141/4/3 131/4/3
f 151/4/3 141/4/3 150/4/3
f 152/3/3 143/3/3 142/3/3
f 152/4/3 141/4/3 151/4/3
f 152/3/3 142/3/3 141/3/3
f 153/3/3 143/3/3 152/3/3
f 154/4/3 144/4/3 143/4/3
f 154/3/3 143/3/3 153/3/3
f 155/3/3 153/3/3 152/3/3
f 155/3/3 152/3/3 151/3/3
f 156/4/3 154/4/3 153/4/3
f 156/3/3 153/3/3 155/3/3
f 157/4/3 144/4/3 154/4/3
f 157/4/3 154/4/3 156/4/3
f 158/4/3 138/4/3 144/4/3
f 158/4/3 144/4/3 157/4/3
f 159/4/3 134/4/3 138/4/3
f 159/4/3 138/4/3 158/4/3
f 160/3/3 145/3/3 134/3/3
f 160/4/3 134/4/3 159/4/3
f 160/3/3 146/3/3 145/3/3
f 161/6/3 147/6/3 124/6/3
f 162/5/3 149/5/3 148/5/3
f 162/6/3 147/6/3 161/6/3
f 162/5/3 148/5/3 147/5/3
f 162/5/3 150/5/3 149/5/3
f 163/5/3 150/5/3 162/5/3
f 164/4/3 151/4/3 150/4/3
f 164/5/3 150/5/3 163/5/3
f 165/3/3 158/3/3 157/3/3
f 165/4/3 159/4/3 158/4/3
f 166/3/3 160/3/3 159/3/3
f 166/4/3 159/4/3 165/4/3
f 167/3/3 146/3/3 160/3/3
f 167/3/3 160/3/3 166/3/3
f 168/2/3 127/2/3 146/2/3
f 168/3/3 146/3/3 167/3/3
f 169/5/3 163/5/3 162/5/3
f 169/6/3 161/6/3 124/6/3
f 169/5/3 162/5/3 161/5/3
f 170/5/3 163/5/3 169/5/3
f 171/4/3 151/4/3 164/4/3
f 171/3/3 164/3/3 163/3/3
f 172/3/3 155/3/3 151/3/3
f 172/4/3 151/4/3 171/4/3
f 173/4/3 157/4/3 156/4/3
f 173/3/3 155/3/3 172/3/3
f 173/4/3 156/4/3 155/4/3
f 174/3/3 167/3/3 166/3/3
f 174/4/3 157/4/3 173/4/3
f 174/3/3 166/3/3 165/3/3
f 174/3/3 165/3/3 157/3/3
f 175/2/3 168/2/3 167/2/3
f 175/3/3 167/3/3 174/3/3
f 176/2/3 127/2/3 168/2/3
f 176/2/3 168/2/3 175/2/3
f 177/6/3 169/6/3 124/6/3
f 177/6/3 170/6/3 169/6/3
f 178/5/3 163/5/3 170/5/3
f 178/6/3 170/6/3 177/6/3
f 179/3/3 172/3/3 171/3/3
f 179/5/3 163/5/3 178/5/3
f 179/3/3 173/3/3 172/3/3
f 179/3/3 171/3/3 163/3/3
f 179/3/3 176/3/3 175/3/3
f 179/3/3 174/3/3 173/3/3
f 179/3/3 175/3/3 174/3/3
f 180/2/3 127/2/3 176/2/3
f 180/3/3 176/3/3 179/3/3
f 181/2/3 127/2/3 180/2/3
f 184/1/3 183/1/3 182/1/3
f 185/1/3 183/1/3 184/1/3
f 186/1/4 187/1/4 188/1/4
f 188/1/4 187/1/4 189/1/4
f 190/6/4 191/6/4 199/6/4
f 191/5/4 192/5/4 200/5/4
f 199/6/4 191/6/4 200/6/4
f 192/3/4 193/3/4 201/3/4
f 200/5/4 192/5/4 201/5/4
f 193/4/4 194/4/4 202/4/4
f 201/3/4 193/3/4 202/3/4
f 194/3/4 195/3/4 203/3/4
f 195/4/4 196/4/4 203/4/4
f 203/4/4 196/4/4 204/4/4
f 190/6/4 199/6/4 205/6/4
f 199/5/4 200/5/4 205/5/4
f 200/5/4 201/5/4 205/5/4
f 201/5/4 202/5/4 205/5/4
f 205/5/4 202/5/4 206/5/4
f 202/4/4 194/4/4 207/4/4
f 206/5/4 202/5/4 207/5/4
f 207/4/4 194/4/4 208/4/4
f 204/4/4 196/4/4 209/4/4
f 196/3/4 197/3/4 209/3/4
f 209/3/4 197/3/4 210/3/4
f 210/3/4 197/3/4 211/3/4
f 197/2/4 198/2/4 212/2/4
f 211/3/4 197/3/4 212/3/4
f 205/6/4 206/6/4 213/6/4
f 207/5/4 208/5/4 213/5/4
f 206/5/4 207/5/4 213/5/4
f 213/5/4 208/5/4 214/5/4
f 208/4/4 194/4/4 215/4/4
f 214/5/4 208/5/4 215/5/4
f 203/3/4 204/3/4 216/3/4
f 209/4/4 210/4/4 216/4/4
f 204/4/4 209/4/4 216/4/4
f 216/4/4 210/4/4 217/4/4
f 210/3/4 211/3/4 218/3/4
f 217/4/4 210/4/4 218/4/4
f 211/2/4 212/2/4 219/2/4
f 218/3/4 211/3/4 219/3/4
f 212/2/4 198/2/4 220/2/4
f 219/2/4 212/2/4 220/2/4
f 216/3/4 217/3/4 221/3/4
f 218/4/4 219/4/4 221/4/4
f 219/4/4 220/4/4 221/4/4
f 217/4/4 218/4/4 221/4/4
f 221/4/4 220/4/4 222/4/4
f 220/2/4 198/2/4 223/2/4
f 222/4/4 220/4/4 223/4/4
f 213/6/4 214/6/4 224/6/4
f 205/6/4 213/6/4 224/6/4
f 214/3/4 215/3/4 225/3/4
f 224/6/4 214/6/4 225/6/4
f 221/3/4 222/3/4 226/3/4
f 194/3/4 203/3/4 226/3/4
f 203/3/4 216/3/4 226/3/4
f 216/3/4 221/3/4 226/3/4
f 226/3/4 222/3/4 227/3/4
f 222/2/4 223/2/4 228/2/4
f 227/3/4 222/3/4 228/3/4
f 228/2/4 223/2/4 229/2/4
f 205/6/4 224/6/4 230/6/4
f 190/6/4 205/6/4 230/6/4
f 224/5/4 225/5/4 231/5/4
f 230/6/4 224/6/4 231/6/4
f 225/3/4 215/3/4 232/3/4
f 231/5/4 225/5/4 232/5/4
f 232/3/4 215/3/4 233/3/4
f 215/4/4 194/4/4 234/4/4
f 233/3/4 215/3/4 234/3/4
f 194/3/4 226/3/4 235/3/4
f 234/4/4 194/4/4 235/4/4
f 226/4/4 227/4/4 236/4/4
f 235/3/4 226/3/4 236/3/4
f 227/3/4 228/3/4 237/3/4
f 236/4/4 227/4/4 237/4/4
f 237/3/4 228/3/4 238/3/4
f 228/4/4 229/4/4 239/4/4
f 238/3/4 228/3/4 239/3/4
f 229/2/4 223/2/4 240/2/4
f 239/4/4 229/4/4 240/4/4
f 223/2/4 198/2/4 241/2/4
f 240/2/4 223/2/4 241/2/4
f 230/5/4 231/5/4 242/5/4
f 232/5/4 233/5/4 242/5/4
f 190/6/4 230/6/4 242/6/4
f 231/5/4 232/5/4 242/5/4
f 242/5/4 233/5/4 243/5/4
f 234/3/4 235/3/4 244/3/4
f 233/3/4 234/3/4 244/3/4
f 235/4/4 236/4/4 245/4/4
f 244/3/4 235/3/4 245/3/4
f 245/4/4 236/4/4 246/4/4
f 236/3/4 237/3/4 247/3/4
f 246/4/4 236/4/4 247/4/4
f 237/3/4 238/3/4 247/3/4
f 239/4/4 240/4/4 248/4/4
f 238/4/4 239/4/4 248/4/4
f 240/3/4 241/3/4 249/3/4
f 248/4/4 240/4/4 249/4/4
f 242/6/4 243/6/4 250/6/4
f 190/6/4 242/6/4 250/6/4
f 243/5/4 233/5/4 251/5/4
f 250/6/4 243/6/4 251/6/4
f 233/3/4 244/3/4 252/3/4
f 251/5/4 233/5/4 252/5/4
f 245/4/4 246/4/4 253/4/4
f 252/3/4 244/3/4 253/3/4
f 244/4/4 245/4/4 253/4/4
f 246/3/4 247/3/4 254/3/4
f 253/4/4 246/4/4 254/4/4
f 247/3/4 238/3/4 255/3/4
f 254/3/4 247/3/4 255/3/4
f 238/4/4 248/4/4 255/4/4
f 248/3/4 249/3/4 256/3/4
f 255/4/4 248/4/4 256/4/4
f 241/2/4 198/2/4 257/2/4
f 256/3/4 249/3/4 257/3/4
f 249/3/4 241/3/4 257/3/4
f 257/2/4 198/2/4 258/2/4
f 261/1/5 260/1/5 259/1/5
f 262/1/5 260/1/5 261/1/5
f 265/6/5 264/6/5 263/6/5
f 266/6/5 264/6/5 265/6/5
f 267/3/5 266/3/5 265/3/5
f 268/3/5 266/3/5 267/3/5
f 269/3/5 267/3/5 265/3/5
f 270/3/5 266/3/5 268/3/5
f 271/6/5 265/6/5 263/6/5
f 271/3/5 270/3/5 269/3/5
f 271/3/5 269/3/5 265/3/5
f 272/3/5 266/3/5 270/3/5
f 272/3/5 270/3/5 271/3/5
f 272/6/5 264/6/5 266/6/5
f 273/6/5 271/6/5 263/6/5
f 273/6/5 272/6/5 271/6/5
f 274/6/5 264/6/5 272/6/5
f 274/6/5 272/6/5 273/6/5
f 275/2/6 276/2/6 277/2/6
f 277/2/6 276/2/6 278/2/6
