# MagicaVoxel @ Ephtracy

# group
o 

# material
mtllib small_deserthouse.mtl
usemtl palette

# normals
vn -1 0 0
vn 1 0 0
vn 0 0 1
vn 0 0 -1
vn 0 -1 0
vn 0 1 0

# texcoords
vt 0.00585938 0.5
vt 0.0332031 0.5
vt 0.306641 0.5
vt 0.759766 0.5
vt 0.857422 0.5
vt 0.869141 0.5
vt 0.880859 0.5

# verts
v -2 0 0.7
v -2 0 -1.1
v -2 0.7 0.4
v -2 0.7 -5.96046e-08
v -2 0.7 -0.5
v -2 0.7 -0.9
v -2 1.2 0.4
v -2 1.2 -5.96046e-08
v -2 1.2 -0.5
v -2 1.2 -0.9
v -2 1.8 0.7
v -2 1.8 -1.1
v -1.9 0.7 0.4
v -1.9 0.7 -5.96046e-08
v -1.9 0.7 -0.5
v -1.9 0.7 -0.9
v -1.9 1.2 0.4
v -1.9 1.2 -5.96046e-08
v -1.9 1.2 -0.5
v -1.9 1.2 -0.9
v -1.9 1.8 -5.96046e-08
v -1.9 1.8 -0.1
v -1.9 1.9 -5.96046e-08
v -1.9 1.9 -0.1
v -1.2 1.2 0.8
v -1.2 1.2 0.7
v -1.2 1.3 0.8
v -1.2 1.3 0.7
v -1.2 1.7 -0.9
v -1.2 1.7 -1
v -1.2 1.8 -0.9
v -1.2 1.8 -1
v -1.2 1.9 -0.9
v -1.2 1.9 -1
v -0.8 1.7 -0.9
v -0.8 1.7 -1
v -0.8 1.8 -0.9
v -0.8 1.8 -1
v -0.8 2 -0.9
v -0.8 2 -1
v -0.7 0 0.7
v -0.7 0 0.6
v -0.7 1.2 0.7
v -0.7 1.2 0.6
v 0.1 0.6 0.7
v 0.1 0.6 0.6
v 0.1 1.1 0.7
v 0.1 1.1 0.6
v 1.1 0.6 0.7
v 1.1 0.6 0.6
v 1.1 1.1 0.7
v 1.1 1.1 0.6
v 1.5 1.6 0.4
v 1.5 1.6 -5.96046e-08
v 1.5 1.7 0.4
v 1.5 1.7 -5.96046e-08
v 1.9 1.7 0.6
v 1.9 1.7 -1
v 1.9 1.8 0.6
v 1.9 1.8 -1
v -1.9 1.7 0.6
v -1.9 1.7 -5.96046e-08
v -1.9 1.7 -0.1
v -1.9 1.7 -1
v -1.9 1.8 0.6
v -1.9 1.8 -5.96046e-08
v -1.9 1.8 -0.1
v -1.9 1.8 -1
v -1.8 1.7 -5.96046e-08
v -1.8 1.7 -0.1
v -1.8 1.8 -5.96046e-08
v -1.8 1.8 -0.1
v -1.8 1.9 -5.96046e-08
v -1.8 1.9 -0.1
v -1.2 0 0.7
v -1.2 0 0.6
v -1.2 1.2 0.7
v -1.2 1.2 0.6
v -1.1 1.7 -0.9
v -1.1 1.7 -1
v -1.1 1.8 -0.9
v -1.1 1.8 -1
v -1.1 1.9 -0.9
v -1.1 1.9 -1
v -0.7 1.2 0.8
v -0.7 1.2 0.7
v -0.7 1.3 0.8
v -0.7 1.3 0.7
v -0.7 1.7 -0.9
v -0.7 1.7 -1
v -0.7 1.8 -0.9
v -0.7 1.8 -1
v -0.7 1.9 -0.9
v -0.7 1.9 -1
v -0.7 2 -0.9
v -0.7 2 -1
v -0.6 1.8 -0.9
v -0.6 1.8 -1
v -0.6 1.9 -0.9
v -0.6 1.9 -1
v -0.3 0.6 0.7
v -0.3 0.6 0.6
v -0.3 1.1 0.7
v -0.3 1.1 0.6
v 0.7 0.6 0.7
v 0.7 0.6 0.6
v 0.7 1.1 0.7
v 0.7 1.1 0.6
v 0.9 1.6 0.4
v 0.9 1.6 -5.96046e-08
v 0.9 1.7 0.4
v 0.9 1.7 -5.96046e-08
v 2 0 0.7
v 2 0 -1.1
v 2 1.8 0.7
v 2 1.8 -1.1
v -1.2 1.2 0.8
v -1.2 1.3 0.8
v -0.7 1.2 0.8
v -0.7 1.3 0.8
v -2 0 0.7
v -2 1.8 0.7
v -1.2 0 0.7
v -1.2 1.2 0.7
v -1.2 1.3 0.7
v -0.7 0 0.7
v -0.7 1.2 0.7
v -0.7 1.3 0.7
v -0.3 0.6 0.7
v -0.3 1.1 0.7
v 0.1 0.6 0.7
v 0.1 1.1 0.7
v 0.7 0.6 0.7
v 0.7 1.1 0.7
v 1.1 0.6 0.7
v 1.1 1.1 0.7
v 2 0 0.7
v 2 1.8 0.7
v -1.2 0 0.6
v -1.2 1.2 0.6
v -0.7 0 0.6
v -0.7 1.2 0.6
v -0.3 0.6 0.6
v -0.3 1.1 0.6
v 0.1 0.6 0.6
v 0.1 1.1 0.6
v 0.7 0.6 0.6
v 0.7 1.1 0.6
v 1.1 0.6 0.6
v 1.1 1.1 0.6
v -2 0.7 -5.96046e-08
v -2 1.2 -5.96046e-08
v -1.9 0.7 -5.96046e-08
v -1.9 1.2 -5.96046e-08
v -1.9 1.7 -5.96046e-08
v -1.9 1.8 -5.96046e-08
v -1.9 1.9 -5.96046e-08
v -1.8 1.7 -5.96046e-08
v -1.8 1.8 -5.96046e-08
v -1.8 1.9 -5.96046e-08
v 0.9 1.6 -5.96046e-08
v 0.9 1.7 -5.96046e-08
v 1.5 1.6 -5.96046e-08
v 1.5 1.7 -5.96046e-08
v -2 0.7 -0.9
v -2 1.2 -0.9
v -1.9 0.7 -0.9
v -1.9 1.2 -0.9
v -1.2 1.7 -0.9
v -1.2 1.8 -0.9
v -1.2 1.9 -0.9
v -1.1 1.7 -0.9
v -1.1 1.8 -0.9
v -1.1 1.9 -0.9
v -0.8 1.7 -0.9
v -0.8 1.8 -0.9
v -0.8 2 -0.9
v -0.7 1.7 -0.9
v -0.7 1.8 -0.9
v -0.7 1.9 -0.9
v -0.7 2 -0.9
v -0.6 1.8 -0.9
v -0.6 1.9 -0.9
v -1.9 1.7 -1
v -1.9 1.8 -1
v -1.2 1.7 -1
v -1.2 1.8 -1
v -1.1 1.7 -1
v -1.1 1.8 -1
v -0.8 1.7 -1
v -0.8 1.8 -1
v -0.7 1.7 -1
v -0.7 1.8 -1
v -0.6 1.8 -1
v 1.9 1.7 -1
v 1.9 1.8 -1
v -1.9 1.7 0.6
v -1.9 1.8 0.6
v 1.9 1.7 0.6
v 1.9 1.8 0.6
v -2 0.7 0.4
v -2 1.2 0.4
v -1.9 0.7 0.4
v -1.9 1.2 0.4
v 0.9 1.6 0.4
v 0.9 1.7 0.4
v 1.5 1.6 0.4
v 1.5 1.7 0.4
v -1.9 1.7 -0.1
v -1.9 1.8 -0.1
v -1.9 1.9 -0.1
v -1.8 1.7 -0.1
v -1.8 1.8 -0.1
v -1.8 1.9 -0.1
v -2 0.7 -0.5
v -2 1.2 -0.5
v -1.9 0.7 -0.5
v -1.9 1.2 -0.5
v -1.2 1.8 -1
v -1.2 1.9 -1
v -1.1 1.8 -1
v -1.1 1.9 -1
v -0.8 1.8 -1
v -0.8 2 -1
v -0.7 1.9 -1
v -0.7 2 -1
v -0.6 1.8 -1
v -0.6 1.9 -1
v -2 0 -1.1
v -2 1.8 -1.1
v 2 0 -1.1
v 2 1.8 -1.1
v -2 0 0.7
v -1.2 0 0.7
v -0.7 0 0.7
v 2 0 0.7
v -1.9 0 0.6
v -1.3 0 0.6
v -1.2 0 0.6
v -0.7 0 0.6
v -0.6 0 0.6
v 1.9 0 0.6
v -1.3 0 0.5
v -1.2 0 0.5
v -0.7 0 0.5
v -0.6 0 0.5
v -1.2 0 0.4
v -0.7 0 0.4
v -1.9 0 -1
v 1.9 0 -1
v -2 0 -1.1
v 2 0 -1.1
v -0.3 1.1 0.7
v 0.1 1.1 0.7
v 0.7 1.1 0.7
v 1.1 1.1 0.7
v -0.3 1.1 0.6
v 0.1 1.1 0.6
v 0.7 1.1 0.6
v 1.1 1.1 0.6
v -1.2 1.2 0.8
v -0.7 1.2 0.8
v -1.2 1.2 0.7
v -0.7 1.2 0.7
v -1.2 1.2 0.6
v -0.7 1.2 0.6
v -2 1.2 0.4
v -1.9 1.2 0.4
v -2 1.2 -5.96046e-08
v -1.9 1.2 -5.96046e-08
v -2 1.2 -0.5
v -1.9 1.2 -0.5
v -2 1.2 -0.9
v -1.9 1.2 -0.9
v -0.7 1.8 -0.9
v -0.6 1.8 -0.9
v -0.7 1.8 -1
v -0.6 1.8 -1
v -0.3 0.6 0.7
v 0.1 0.6 0.7
v 0.7 0.6 0.7
v 1.1 0.6 0.7
v -0.3 0.6 0.6
v 0.1 0.6 0.6
v 0.7 0.6 0.6
v 1.1 0.6 0.6
v -2 0.7 0.4
v -1.9 0.7 0.4
v -2 0.7 -5.96046e-08
v -1.9 0.7 -5.96046e-08
v -2 0.7 -0.5
v -1.9 0.7 -0.5
v -2 0.7 -0.9
v -1.9 0.7 -0.9
v -1.2 1.3 0.8
v -0.7 1.3 0.8
v -1.2 1.3 0.7
v -0.7 1.3 0.7
v 0.9 1.6 0.4
v 1.5 1.6 0.4
v 0.9 1.6 -5.96046e-08
v 1.5 1.6 -5.96046e-08
v -1.9 1.7 0.6
v 1.9 1.7 0.6
v 0.9 1.7 0.4
v 1.5 1.7 0.4
v -1.9 1.7 -5.96046e-08
v -1.8 1.7 -5.96046e-08
v 0.9 1.7 -5.96046e-08
v 1.5 1.7 -5.96046e-08
v -1.9 1.7 -0.1
v -1.8 1.7 -0.1
v -1.2 1.7 -0.9
v -1.1 1.7 -0.9
v -0.8 1.7 -0.9
v -0.7 1.7 -0.9
v -1.9 1.7 -1
v -1.2 1.7 -1
v -1.1 1.7 -1
v -0.8 1.7 -1
v -0.7 1.7 -1
v 1.9 1.7 -1
v -2 1.8 0.7
v 2 1.8 0.7
v -1.9 1.8 0.6
v 1.9 1.8 0.6
v -1.9 1.8 -5.96046e-08
v -1.9 1.8 -0.1
v -1.9 1.8 -1
v -1.2 1.8 -1
v -1.1 1.8 -1
v -0.8 1.8 -1
v -0.6 1.8 -1
v 1.9 1.8 -1
v -2 1.8 -1.1
v 2 1.8 -1.1
v -1.9 1.9 -5.96046e-08
v -1.8 1.9 -5.96046e-08
v -1.9 1.9 -0.1
v -1.8 1.9 -0.1
v -1.2 1.9 -0.9
v -1.1 1.9 -0.9
v -0.7 1.9 -0.9
v -0.6 1.9 -0.9
v -1.2 1.9 -1
v -1.1 1.9 -1
v -0.7 1.9 -1
v -0.6 1.9 -1
v -0.8 2 -0.9
v -0.7 2 -0.9
v -0.8 2 -1
v -0.7 2 -1

# faces
f 3/1/1 2/1/1 1/1/1
f 4/1/1 2/1/1 3/1/1
f 5/1/1 2/1/1 4/1/1
f 6/1/1 2/1/1 5/1/1
f 7/1/1 3/1/1 1/1/1
f 8/1/1 5/1/1 4/1/1
f 9/1/1 5/1/1 8/1/1
f 10/1/1 2/1/1 6/1/1
f 11/1/1 9/1/1 8/1/1
f 11/1/1 10/1/1 9/1/1
f 11/1/1 7/1/1 1/1/1
f 11/1/1 8/1/1 7/1/1
f 12/1/1 2/1/1 10/1/1
f 12/1/1 10/1/1 11/1/1
f 17/6/1 14/6/1 13/6/1
f 18/6/1 14/6/1 17/6/1
f 19/6/1 16/6/1 15/6/1
f 20/6/1 16/6/1 19/6/1
f 23/7/1 22/7/1 21/7/1
f 24/7/1 22/7/1 23/7/1
f 27/5/1 26/5/1 25/5/1
f 28/5/1 26/5/1 27/5/1
f 31/5/1 30/5/1 29/5/1
f 32/5/1 30/5/1 31/5/1
f 33/7/1 32/7/1 31/7/1
f 34/7/1 32/7/1 33/7/1
f 37/5/1 36/5/1 35/5/1
f 38/5/1 36/5/1 37/5/1
f 39/7/1 38/7/1 37/7/1
f 40/7/1 38/7/1 39/7/1
f 43/1/1 42/1/1 41/1/1
f 44/1/1 42/1/1 43/1/1
f 47/1/1 46/1/1 45/1/1
f 48/1/1 46/1/1 47/1/1
f 51/1/1 50/1/1 49/1/1
f 52/1/1 50/1/1 51/1/1
f 55/2/1 54/2/1 53/2/1
f 56/2/1 54/2/1 55/2/1
f 59/1/1 58/1/1 57/1/1
f 60/1/1 58/1/1 59/1/1
f 61/1/2 62/1/2 65/1/2
f 65/1/2 62/1/2 66/1/2
f 63/1/2 64/1/2 67/1/2
f 67/1/2 64/1/2 68/1/2
f 69/5/2 70/5/2 71/5/2
f 71/5/2 70/5/2 72/5/2
f 71/7/2 72/7/2 73/7/2
f 73/7/2 72/7/2 74/7/2
f 75/1/2 76/1/2 77/1/2
f 77/1/2 76/1/2 78/1/2
f 79/5/2 80/5/2 81/5/2
f 81/5/2 80/5/2 82/5/2
f 81/7/2 82/7/2 83/7/2
f 83/7/2 82/7/2 84/7/2
f 85/5/2 86/5/2 87/5/2
f 87/5/2 86/5/2 88/5/2
f 89/5/2 90/5/2 91/5/2
f 91/5/2 90/5/2 92/5/2
f 93/7/2 94/7/2 95/7/2
f 95/7/2 94/7/2 96/7/2
f 97/7/2 98/7/2 99/7/2
f 99/7/2 98/7/2 100/7/2
f 101/1/2 102/1/2 103/1/2
f 103/1/2 102/1/2 104/1/2
f 105/1/2 106/1/2 107/1/2
f 107/1/2 106/1/2 108/1/2
f 109/2/2 110/2/2 111/2/2
f 111/2/2 110/2/2 112/2/2
f 113/1/2 114/1/2 115/1/2
f 115/1/2 114/1/2 116/1/2
f 119/5/3 118/5/3 117/5/3
f 120/5/3 118/5/3 119/5/3
f 123/1/3 122/1/3 121/1/3
f 124/1/3 122/1/3 123/1/3
f 125/1/3 122/1/3 124/1/3
f 128/1/3 122/1/3 125/1/3
f 129/1/3 127/1/3 126/1/3
f 129/1/3 128/1/3 127/1/3
f 130/1/3 128/1/3 129/1/3
f 131/1/3 129/1/3 126/1/3
f 132/1/3 128/1/3 130/1/3
f 133/1/3 131/1/3 126/1/3
f 133/1/3 132/1/3 131/1/3
f 134/1/3 128/1/3 132/1/3
f 134/1/3 132/1/3 133/1/3
f 135/1/3 133/1/3 126/1/3
f 136/1/3 128/1/3 134/1/3
f 137/1/3 135/1/3 126/1/3
f 137/1/3 136/1/3 135/1/3
f 138/1/3 122/1/3 128/1/3
f 138/1/3 136/1/3 137/1/3
f 138/1/3 128/1/3 136/1/3
f 141/4/3 140/4/3 139/4/3
f 142/4/3 140/4/3 141/4/3
f 145/6/3 144/6/3 143/6/3
f 146/6/3 144/6/3 145/6/3
f 149/6/3 148/6/3 147/6/3
f 150/6/3 148/6/3 149/6/3
f 153/1/3 152/1/3 151/1/3
f 154/1/3 152/1/3 153/1/3
f 158/5/3 156/5/3 155/5/3
f 159/7/3 157/7/3 156/7/3
f 159/5/3 156/5/3 158/5/3
f 160/7/3 157/7/3 159/7/3
f 163/2/3 162/2/3 161/2/3
f 164/2/3 162/2/3 163/2/3
f 167/1/3 166/1/3 165/1/3
f 168/1/3 166/1/3 167/1/3
f 172/5/3 170/5/3 169/5/3
f 173/7/3 171/7/3 170/7/3
f 173/5/3 170/5/3 172/5/3
f 174/7/3 171/7/3 173/7/3
f 178/5/3 176/5/3 175/5/3
f 179/7/3 177/7/3 176/7/3
f 179/5/3 176/5/3 178/5/3
f 180/7/3 177/7/3 179/7/3
f 181/7/3 177/7/3 180/7/3
f 182/7/3 180/7/3 179/7/3
f 183/7/3 180/7/3 182/7/3
f 186/1/3 185/1/3 184/1/3
f 187/1/3 185/1/3 186/1/3
f 190/1/3 189/1/3 188/1/3
f 191/1/3 189/1/3 190/1/3
f 194/1/3 193/1/3 192/1/3
f 195/1/3 194/1/3 192/1/3
f 196/1/3 194/1/3 195/1/3
f 197/1/4 198/1/4 199/1/4
f 199/1/4 198/1/4 200/1/4
f 201/1/4 202/1/4 203/1/4
f 203/1/4 202/1/4 204/1/4
f 205/2/4 206/2/4 207/2/4
f 207/2/4 206/2/4 208/2/4
f 209/5/4 210/5/4 212/5/4
f 210/7/4 211/7/4 213/7/4
f 212/5/4 210/5/4 213/5/4
f 213/7/4 211/7/4 214/7/4
f 215/1/4 216/1/4 217/1/4
f 217/1/4 216/1/4 218/1/4
f 219/7/4 220/7/4 221/7/4
f 221/7/4 220/7/4 222/7/4
f 223/7/4 224/7/4 225/7/4
f 225/7/4 224/7/4 226/7/4
f 223/7/4 225/7/4 227/7/4
f 227/7/4 225/7/4 228/7/4
f 229/1/4 230/1/4 231/1/4
f 231/1/4 230/1/4 232/1/4
f 237/1/5 234/1/5 233/1/5
f 238/1/5 234/1/5 237/1/5
f 239/1/5 234/1/5 238/1/5
f 240/1/5 236/1/5 235/1/5
f 241/1/5 236/1/5 240/1/5
f 242/1/5 236/1/5 241/1/5
f 243/1/5 239/1/5 238/1/5
f 243/3/5 238/3/5 237/3/5
f 244/4/5 240/4/5 239/4/5
f 244/1/5 239/1/5 243/1/5
f 245/1/5 241/1/5 240/1/5
f 245/4/5 240/4/5 244/4/5
f 246/3/5 242/3/5 241/3/5
f 246/1/5 241/1/5 245/1/5
f 247/4/5 245/4/5 244/4/5
f 247/3/5 244/3/5 243/3/5
f 248/3/5 246/3/5 245/3/5
f 248/4/5 245/4/5 247/4/5
f 249/1/5 237/1/5 233/1/5
f 249/3/5 243/3/5 237/3/5
f 249/3/5 248/3/5 247/3/5
f 249/3/5 247/3/5 243/3/5
f 250/1/5 236/1/5 242/1/5
f 250/3/5 248/3/5 249/3/5
f 250/3/5 246/3/5 248/3/5
f 250/3/5 242/3/5 246/3/5
f 251/1/5 249/1/5 233/1/5
f 251/1/5 250/1/5 249/1/5
f 252/1/5 236/1/5 250/1/5
f 252/1/5 250/1/5 251/1/5
f 257/1/5 254/1/5 253/1/5
f 258/1/5 254/1/5 257/1/5
f 259/1/5 256/1/5 255/1/5
f 260/1/5 256/1/5 259/1/5
f 263/5/5 262/5/5 261/5/5
f 264/5/5 262/5/5 263/5/5
f 265/1/5 264/1/5 263/1/5
f 266/1/5 264/1/5 265/1/5
f 269/1/5 268/1/5 267/1/5
f 270/1/5 268/1/5 269/1/5
f 273/1/5 272/1/5 271/1/5
f 274/1/5 272/1/5 273/1/5
f 277/7/5 276/7/5 275/7/5
f 278/7/5 276/7/5 277/7/5
f 279/1/6 280/1/6 283/1/6
f 283/1/6 280/1/6 284/1/6
f 281/1/6 282/1/6 285/1/6
f 285/1/6 282/1/6 286/1/6
f 287/1/6 288/1/6 289/1/6
f 289/1/6 288/1/6 290/1/6
f 291/1/6 292/1/6 293/1/6
f 293/1/6 292/1/6 294/1/6
f 295/5/6 296/5/6 297/5/6
f 297/5/6 296/5/6 298/5/6
f 299/5/6 300/5/6 301/5/6
f 301/5/6 300/5/6 302/5/6
f 303/2/6 304/2/6 305/2/6
f 305/2/6 304/2/6 306/2/6
f 303/2/6 305/2/6 307/2/6
f 307/2/6 305/2/6 308/2/6
f 308/2/6 305/2/6 309/2/6
f 306/2/6 304/2/6 310/2/6
f 308/2/6 309/2/6 312/2/6
f 309/2/6 310/2/6 312/2/6
f 312/2/6 310/2/6 313/2/6
f 311/2/6 312/2/6 313/2/6
f 313/2/6 310/2/6 314/2/6
f 314/2/6 310/2/6 315/2/6
f 315/2/6 310/2/6 316/2/6
f 311/2/6 313/2/6 317/2/6
f 317/2/6 313/2/6 318/2/6
f 314/2/6 315/2/6 319/2/6
f 319/2/6 315/2/6 320/2/6
f 316/2/6 310/2/6 321/2/6
f 310/2/6 304/2/6 322/2/6
f 321/2/6 310/2/6 322/2/6
f 323/1/6 324/1/6 325/1/6
f 325/1/6 324/1/6 326/1/6
f 323/1/6 325/1/6 327/1/6
f 323/1/6 327/1/6 328/1/6
f 323/1/6 328/1/6 329/1/6
f 326/1/6 324/1/6 334/1/6
f 332/1/6 333/1/6 335/1/6
f 333/1/6 334/1/6 335/1/6
f 323/1/6 329/1/6 335/1/6
f 329/1/6 330/1/6 335/1/6
f 331/1/6 332/1/6 335/1/6
f 330/1/6 331/1/6 335/1/6
f 334/1/6 324/1/6 336/1/6
f 335/1/6 334/1/6 336/1/6
f 337/7/6 338/7/6 339/7/6
f 339/7/6 338/7/6 340/7/6
f 341/7/6 342/7/6 345/7/6
f 345/7/6 342/7/6 346/7/6
f 343/7/6 344/7/6 347/7/6
f 347/7/6 344/7/6 348/7/6
f 349/7/6 350/7/6 351/7/6
f 351/7/6 350/7/6 352/7/6
